<?xml version="1.0" standalone="no"?>
<!DOCTYPE svg PUBLIC "-//W3C//DTD SVG 20010904//EN"
 "http://www.w3.org/TR/2001/REC-SVG-20010904/DTD/svg10.dtd">
<svg version="1.0" xmlns="http://www.w3.org/2000/svg"
 width="458.000000pt" height="440.000000pt" viewBox="0 0 458.000000 440.000000"
 preserveAspectRatio="xMidYMid meet">

<g transform="translate(0.000000,440.000000) scale(0.100000,-0.100000)"
fill="#000000" stroke="none">
<path d="M3880 2945 c7 -8 17 -15 22 -15 6 0 5 7 -2 15 -7 8 -17 15 -22 15 -6
0 -5 -7 2 -15z"/>
<path d="M3174 1497 c3 -10 15 -64 27 -120 27 -130 22 -319 -10 -442 -23 -88
-85 -222 -139 -300 -83 -121 -246 -256 -384 -319 -117 -54 -210 -71 -378 -71
-129 0 -169 4 -236 22 -244 67 -448 222 -578 441 -110 184 -157 429 -122 632
9 52 20 106 23 120 l6 25 -20 -25 c-30 -39 -73 -182 -90 -304 -19 -127 -9
-262 27 -401 74 -279 273 -513 550 -647 147 -72 247 -93 435 -93 215 1 329 32
533 147 51 28 170 128 219 183 253 284 331 694 198 1045 -22 58 -76 152 -61
107z"/>
<path d="M2450 635 c-7 -9 -11 -18 -8 -20 3 -3 11 1 18 10 7 9 11 18 8 20 -3
3 -11 -1 -18 -10z"/>
</g>
</svg>
